<svg width="72" height="72" viewBox="0 0 72 72" fill="none" xmlns="http://www.w3.org/2000/svg">
<path d="M27.2592 47.2602C27.2592 47.8124 27.7069 48.2602 28.2592 48.2602H31.2092C31.7615 48.2602 32.2092 47.8124 32.2092 47.2602V24.8102C32.2092 24.2579 31.7615 23.8102 31.2092 23.8102H28.2592C27.7069 23.8102 27.2592 24.2579 27.2592 24.8102V47.2602ZM39.7092 47.2602C39.7092 47.8124 40.1569 48.2602 40.7092 48.2602H43.6592C44.2115 48.2602 44.6592 47.8124 44.6592 47.2602V24.8102C44.6592 24.2579 44.2115 23.8102 43.6592 23.8102H40.7092C40.1569 23.8102 39.7092 24.2579 39.7092 24.8102V47.2602ZM35.9592 67.0852C31.7092 67.0852 27.6967 66.2727 23.9217 64.6477C20.1467 63.0227 16.8467 60.7977 14.0217 57.9727C11.1967 55.1477 8.97168 51.8602 7.34668 48.1102C5.72168 44.3602 4.90918 40.3352 4.90918 36.0352C4.90918 31.7352 5.72168 27.6977 7.34668 23.9227C8.97168 20.1477 11.1842 16.8602 13.9842 14.0602C16.7842 11.2602 20.0717 9.03516 23.8467 7.38516C27.6217 5.73516 31.6592 4.91016 35.9592 4.91016C40.2592 4.91016 44.3092 5.73516 48.1092 7.38516C51.9092 9.03516 55.1967 11.2477 57.9717 14.0227C60.7467 16.7977 62.9592 20.0727 64.6092 23.8477C66.2592 27.6227 67.0842 31.6852 67.0842 36.0352C67.0842 40.3352 66.2592 44.3727 64.6092 48.1477C62.9592 51.9227 60.7342 55.2102 57.9342 58.0102C55.1342 60.8102 51.8592 63.0227 48.1092 64.6477C44.3592 66.2727 40.3092 67.0852 35.9592 67.0852Z" fill="#C42B1C"/>
<path d="M39.7092 47.2602C39.7092 47.8124 40.1569 48.2602 40.7092 48.2602H43.6592C44.2115 48.2602 44.6592 47.8124 44.6592 47.2602V24.8102C44.6592 24.2579 44.2115 23.8102 43.6592 23.8102H40.7092C40.1569 23.8102 39.7092 24.2579 39.7092 24.8102V47.2602Z" fill="white"/>
<path d="M27.2592 47.2602C27.2592 47.8124 27.7069 48.2602 28.2592 48.2602H31.2092C31.7615 48.2602 32.2092 47.8124 32.2092 47.2602V24.8102C32.2092 24.2579 31.7615 23.8102 31.2092 23.8102H28.2592C27.7069 23.8102 27.2592 24.2579 27.2592 24.8102V47.2602Z" fill="white"/>
</svg>
