<svg width="72" height="72" viewBox="0 0 72 72" fill="none" xmlns="http://www.w3.org/2000/svg">
<path d="M28.5 47.3763C28.5 48.1658 29.3719 48.644 30.0376 48.2195L47.8777 36.8432C48.4942 36.4501 48.4942 35.5499 47.8777 35.1568L30.0376 23.7805C29.3719 23.356 28.5 23.8342 28.5 24.6237V47.3763ZM36 67.05C31.75 67.05 27.7375 66.2375 23.9625 64.6125C20.1875 62.9875 16.8875 60.7625 14.0625 57.9375C11.2375 55.1125 9.01245 51.825 7.38745 48.075C5.76245 44.325 4.94995 40.3 4.94995 36C4.94995 31.7 5.76245 27.6625 7.38745 23.8875C9.01245 20.1125 11.225 16.825 14.025 14.025C16.825 11.225 20.1125 9 23.8875 7.35C27.6625 5.7 31.7 4.875 36 4.875C40.3 4.875 44.3499 5.7 48.1499 7.35C51.9499 9 55.2374 11.2125 58.0125 13.9875C60.7875 16.7625 62.9999 20.0375 64.6499 23.8125C66.2999 27.5875 67.125 31.65 67.125 36C67.125 40.3 66.2999 44.3375 64.6499 48.1125C62.9999 51.8875 60.775 55.175 57.975 57.975C55.175 60.775 51.8999 62.9875 48.1499 64.6125C44.3999 66.2375 40.35 67.05 36 67.05Z" fill="#27C26C"/>
<path d="M28.5 47.3763C28.5 48.1658 29.3719 48.644 30.0376 48.2195L47.8777 36.8432C48.4942 36.4501 48.4942 35.5499 47.8777 35.1568L30.0376 23.7805C29.3719 23.356 28.5 23.8342 28.5 24.6237V47.3763Z" fill="white"/>
</svg>
